<svg width="101" height="48" viewBox="0 0 101 48" fill="none" xmlns="http://www.w3.org/2000/svg">
<rect width="101" height="48" rx="8" fill="url(#paint0_linear_61_182)"/>
<path d="M29.5594 14.352C28.7859 15.2301 27.5482 15.923 26.3105 15.8239C26.1558 14.6366 26.7617 13.3749 27.4708 12.5956C28.2442 11.6927 29.598 11.0495 30.6939 11C30.8228 12.2369 30.3199 13.4491 29.5594 14.352ZM30.6811 16.059C28.889 15.9601 27.3549 17.0361 26.504 17.0361C25.6403 17.0361 24.3381 16.1085 22.92 16.1332C21.0765 16.158 19.3618 17.1598 18.4207 18.7555C16.4868 21.9467 17.9179 26.6718 19.7872 29.2693C20.7026 30.5557 21.7984 31.9657 23.2423 31.9162C24.609 31.8668 25.1504 31.0629 26.8006 31.0629C28.4636 31.0629 28.9407 31.9162 30.3846 31.8915C31.8801 31.8668 32.8212 30.6053 33.7366 29.3188C34.7807 27.8592 35.2062 26.4367 35.232 26.3625C35.2062 26.3378 32.3442 25.2865 32.3185 22.1199C32.2927 19.4729 34.5746 18.2113 34.6777 18.1371C33.3884 16.3064 31.3773 16.1085 30.6811 16.059ZM41.0336 12.4719V31.7556H44.1534V25.1628H48.4722C52.4172 25.1628 55.189 22.5653 55.189 18.805C55.189 15.0449 52.4687 12.472 48.5754 12.472L41.0336 12.4719ZM44.1534 14.9953H47.7502C50.4577 14.9953 52.0047 16.3806 52.0047 18.8173C52.0047 21.254 50.4577 22.6518 47.7374 22.6518H44.1534V14.9953ZM60.8872 31.9039C62.8469 31.9039 64.6646 30.9515 65.4897 29.4424H65.5542V31.7555H68.4421V22.157C68.4421 19.374 66.1215 17.5804 62.5502 17.5804C59.237 17.5804 56.7875 19.3987 56.6973 21.8972H59.5078C59.7398 20.7098 60.8871 19.9305 62.46 19.9305C64.3681 19.9305 65.4381 20.784 65.4381 22.355V23.4186L61.5447 23.6412C57.922 23.8515 55.9625 25.274 55.9625 27.7479C55.9625 30.2465 57.9864 31.9039 60.8872 31.9039ZM61.7251 29.6156C60.0622 29.6156 59.0049 28.8488 59.0049 27.6736C59.0049 26.4616 60.0234 25.7565 61.9702 25.6452L65.4381 25.4349V26.5233C65.4381 28.3292 63.8396 29.6156 61.7253 29.6156M72.2969 37C75.3394 37 76.7704 35.8869 78.021 32.51L83.5 17.7659H80.3285L76.6543 29.1579H76.5898L72.9156 17.7659H69.6539L74.9396 31.8049L74.656 32.6584C74.179 34.1056 73.4055 34.6622 72.026 34.6622C71.7811 34.6622 71.3042 34.6375 71.1107 34.6128V36.9258C71.2911 36.9753 72.0646 37 72.2967 37" fill="black"/>
<defs>
<linearGradient id="paint0_linear_61_182" x1="50.5" y1="0" x2="50.5" y2="48" gradientUnits="userSpaceOnUse">
<stop stop-color="white"/>
<stop offset="1" stop-color="white"/>
</linearGradient>
</defs>
</svg>
