<svg width="101" height="48" viewBox="0 0 101 48" fill="none" xmlns="http://www.w3.org/2000/svg">
<rect width="101" height="48" rx="8" fill="url(#paint0_linear_61_232)"/>
<path d="M43.4915 28.1111C41.2201 37.2231 31.9882 42.7622 22.8892 40.4907C13.7769 38.2193 8.23782 28.9878 10.5093 19.8889C12.7807 10.7769 21.9992 5.23782 31.1115 7.50932C40.2105 9.7674 45.763 18.9989 43.4915 28.1111Z" fill="url(#paint1_linear_61_232)"/>
<path d="M33.6659 21.7561C33.9394 19.8967 32.5284 18.8904 30.5815 18.2232L31.2159 15.6967L29.6847 15.3139L29.0722 17.7748C28.6675 17.6764 28.2519 17.5779 27.8362 17.4904L28.4487 15.0186L26.9175 14.6357L26.294 17.1514C25.955 17.0748 25.6269 16.9982 25.3097 16.9217V16.9107L23.1878 16.3857L22.7831 18.0264C22.7831 18.0264 23.9206 18.2889 23.8987 18.2998C24.5222 18.4529 24.6315 18.8686 24.6097 19.1967L23.8878 22.0732C23.9315 22.0842 23.9862 22.0951 24.0519 22.1279C23.9972 22.117 23.9425 22.1061 23.8878 22.0842L22.8815 26.1092C22.805 26.2951 22.6081 26.5795 22.1815 26.4701C22.1925 26.492 21.0659 26.1967 21.0659 26.1967L20.3003 27.9576L22.3019 28.4608C22.6737 28.5592 23.0347 28.6467 23.3956 28.7451L22.7612 31.2936L24.2925 31.6764L24.9269 29.1498C25.3425 29.2592 25.7581 29.3686 26.1519 29.467L25.5284 31.9826L27.0597 32.3654L27.694 29.817C30.319 30.3092 32.2878 30.1123 33.1081 27.7389C33.7753 25.8358 33.0753 24.7311 31.6972 24.0092C32.7144 23.7795 33.4691 23.1123 33.6659 21.7561ZM30.155 26.6779C29.6847 28.5811 26.469 27.5529 25.43 27.2904L26.2722 23.9108C27.3112 24.1733 30.6581 24.6873 30.155 26.6779ZM30.6362 21.7232C30.1987 23.4623 27.53 22.5764 26.6659 22.3576L27.4315 19.2951C28.2956 19.5139 31.0847 19.9186 30.6362 21.7232Z" fill="white"/>
<path d="M63.5 21.74C64.14 22.0467 64.6467 22.4867 65.02 23.06C65.4067 23.6333 65.6 24.2933 65.6 25.04C65.6 26.16 65.2067 27.1 64.42 27.86C63.6333 28.62 62.6733 29 61.54 29H55.5V15H61.1C62.1933 15 63.12 15.3667 63.88 16.1C64.64 16.8333 65.02 17.74 65.02 18.82C65.02 20.06 64.5133 21.0333 63.5 21.74ZM61.1 16.74H57.36V21.02H61.1C61.6867 21.02 62.18 20.8133 62.58 20.4C62.98 19.9867 63.18 19.48 63.18 18.88C63.18 18.2933 62.9733 17.7933 62.56 17.38C62.16 16.9533 61.6733 16.74 61.1 16.74ZM61.54 27.26C62.1667 27.26 62.6933 27.04 63.12 26.6C63.5467 26.16 63.76 25.62 63.76 24.98C63.76 24.3533 63.54 23.82 63.1 23.38C62.6733 22.94 62.1533 22.72 61.54 22.72H57.36V27.26H61.54ZM76.3741 15V16.76H72.2341V29H70.3941V16.76H66.2741V15H76.3741ZM83.9941 29.26C81.8741 29.26 80.1207 28.56 78.7341 27.16C77.3607 25.76 76.6741 24.04 76.6741 22C76.6741 19.96 77.3607 18.24 78.7341 16.84C80.1207 15.44 81.8741 14.74 83.9941 14.74C85.2741 14.74 86.4474 15.0467 87.5141 15.66C88.5941 16.2733 89.4341 17.1 90.0341 18.14L88.4141 19.08C88.0141 18.3067 87.4141 17.6933 86.6141 17.24C85.8274 16.7733 84.9541 16.54 83.9941 16.54C82.3807 16.54 81.0607 17.06 80.0341 18.1C79.0207 19.14 78.5141 20.44 78.5141 22C78.5141 23.5467 79.0207 24.84 80.0341 25.88C81.0607 26.92 82.3807 27.44 83.9941 27.44C84.9541 27.44 85.8274 27.2133 86.6141 26.76C87.4141 26.2933 88.0141 25.68 88.4141 24.92L90.0341 25.84C89.4474 26.88 88.6141 27.7133 87.5341 28.34C86.4541 28.9533 85.2741 29.26 83.9941 29.26Z" fill="black"/>
<defs>
<linearGradient id="paint0_linear_61_232" x1="50.5" y1="0" x2="50.5" y2="48" gradientUnits="userSpaceOnUse">
<stop stop-color="white"/>
<stop offset="1" stop-color="white"/>
</linearGradient>
<linearGradient id="paint1_linear_61_232" x1="1709.08" y1="6.184" x2="1709.08" y2="3406.66" gradientUnits="userSpaceOnUse">
<stop stop-color="#F9AA4B"/>
<stop offset="1" stop-color="#F7931A"/>
</linearGradient>
</defs>
</svg>
