<svg width="102" height="48" viewBox="0 0 102 48" fill="none" xmlns="http://www.w3.org/2000/svg">
<rect width="102" height="48" rx="8" fill="url(#paint0_linear_61_204)"/>
<path d="M65.8277 17.5754C67.7796 17.5754 69.2879 18.1037 70.4414 19.1602C71.5947 20.2165 72.1269 21.6251 72.1269 23.3858V31.8372H69.6427V29.9006H69.554C68.4894 31.4854 66.9811 32.2777 65.2066 32.2777C63.6983 32.2777 62.3675 31.8374 61.3029 30.9571C60.3269 30.0768 59.7058 28.8443 59.7058 27.5237C59.7058 26.1151 60.2382 24.9706 61.3029 24.0902C62.3675 23.2099 63.8758 22.8577 65.6502 22.8577C67.2472 22.8577 68.4894 23.1219 69.4652 23.7381V23.1219C69.4652 22.3002 69.1561 21.4786 68.5378 20.9432L68.4005 20.833C67.6908 20.2166 66.8036 19.8645 65.8277 19.8645C64.3195 19.8645 63.166 20.4808 62.3675 21.7133L60.0608 20.3044C61.4802 18.4556 63.3434 17.5754 65.8277 17.5754ZM53.3179 11.5889C54.9098 11.5889 56.4227 12.1386 57.6324 13.1637L57.8427 13.3495C59.0848 14.4059 59.7058 15.9907 59.7058 17.6633C59.7058 19.336 59.0848 20.8327 57.8427 21.9771C56.6007 23.1215 55.0923 23.7378 53.3179 23.7378L49.0593 23.6498V31.8372H46.3975V11.5889H53.3179ZM66.1825 24.9704C65.1178 24.9704 64.2307 25.2345 63.5209 25.7627C62.8111 26.2029 62.4562 26.8191 62.4562 27.6114C62.4562 28.3158 62.8112 28.9319 63.3434 29.2842C63.9645 29.7244 64.6743 29.9884 65.3841 29.9884C66.3777 29.9884 67.3714 29.6049 68.1487 28.9096L68.3119 28.756C69.1991 27.9636 69.6427 26.9952 69.6427 25.9387C68.8443 25.3226 67.6908 24.9703 66.1826 24.9703M53.4955 14.0537H49.0594V21.097H53.4955C54.4714 21.097 55.4473 20.7449 56.0684 20.0407C57.4879 18.7201 57.4879 16.5192 56.1572 15.1985L56.0684 15.1105C55.3586 14.4062 54.4714 13.966 53.4954 14.0541M86.5 18.0156L77.7165 37.9999H75.0548L78.3375 31.0451L72.5705 18.1037H75.4097L79.5796 28.0517H79.6683L83.7496 18.1037H86.5V18.0156Z" fill="#5F6368"/>
<path d="M38.5011 21.8896C38.5011 21.0973 38.4124 20.305 38.3236 19.5127H27.2336V24.0026H33.5328C33.2667 25.411 32.4682 26.7316 31.2261 27.524V30.4292H35.0411C37.2592 28.4044 38.5013 25.411 38.5013 21.8897" fill="#4285F4"/>
<path d="M27.2336 33.2471C30.4275 33.2471 33.0891 32.1906 35.0411 30.4299L31.2261 27.5247C30.1614 28.229 28.8305 28.6691 27.2336 28.6691C24.2169 28.6691 21.5552 26.6444 20.668 23.8271H16.7644V26.8204C18.805 30.782 22.7975 33.2471 27.2336 33.2471Z" fill="#34A853"/>
<path d="M20.668 23.8268C20.1358 22.4182 20.1358 20.8336 20.668 19.337V16.3438H16.7644C15.0785 19.6011 15.0785 23.4747 16.7644 26.82L20.668 23.8268Z" fill="#FBBC04"/>
<path d="M27.2336 14.5827C28.9193 14.5827 30.5162 15.199 31.7584 16.3434L35.1298 12.9981C33.0004 11.0612 30.1614 9.9168 27.3222 10.0047C22.8861 10.0047 18.805 12.4698 16.853 16.4315L20.7568 19.4247C21.5553 16.6074 24.2169 14.5827 27.2336 14.5827Z" fill="#EA4335"/>
<defs>
<linearGradient id="paint0_linear_61_204" x1="51" y1="0" x2="51" y2="48" gradientUnits="userSpaceOnUse">
<stop stop-color="white"/>
<stop offset="1" stop-color="white"/>
</linearGradient>
</defs>
</svg>
