<svg width="101" height="48" viewBox="0 0 101 48" fill="none" xmlns="http://www.w3.org/2000/svg">
<rect width="101" height="48" rx="8" fill="url(#paint0_linear_61_218)"/>
<path d="M37.1429 39.9285V37.8048C37.1429 36.9905 36.6381 36.4597 35.7728 36.4597C35.3402 36.4597 34.8715 36.6013 34.547 37.0615C34.2948 36.6721 33.9343 36.4597 33.3935 36.4597C33.0329 36.4597 32.6726 36.5658 32.384 36.9552V36.5305H31.627V39.9285H32.384V38.0525C32.384 37.4509 32.7085 37.1676 33.2134 37.1676C33.7179 37.1676 33.9704 37.4862 33.9704 38.0525V39.9285H34.7275V38.0525C34.7275 37.4509 35.0878 37.1676 35.5565 37.1676C36.0613 37.1676 36.3136 37.4862 36.3136 38.0525V39.9285H37.1429ZM48.3547 36.5305H47.1291V35.504H46.372V36.5305H45.6871V37.2029H46.3719V38.7605C46.3719 39.5393 46.6964 39.9993 47.5617 39.9993C47.8862 39.9993 48.2465 39.8932 48.4991 39.7517L48.2826 39.1144C48.0663 39.256 47.8141 39.2915 47.6338 39.2915C47.2733 39.2915 47.1291 39.0791 47.1291 38.725V37.2029H48.3547V36.5305ZM54.772 36.4595C54.3394 36.4595 54.051 36.6721 53.8707 36.9552V36.5305H53.1136V39.9285H53.8707V38.0172C53.8707 37.4509 54.1229 37.1322 54.5916 37.1322C54.7358 37.1322 54.9161 37.1677 55.0603 37.203L55.2766 36.4952C55.1324 36.4597 54.9161 36.4597 54.772 36.4597M45.0742 36.8138C44.7135 36.566 44.2089 36.4599 43.6681 36.4599C42.8029 36.4599 42.2262 36.8846 42.2262 37.5571C42.2262 38.1236 42.6587 38.442 43.4158 38.5483L43.7763 38.5838C44.1729 38.6544 44.3892 38.7607 44.3892 38.9377C44.3892 39.1854 44.1008 39.3624 43.596 39.3624C43.0912 39.3624 42.6947 39.1854 42.4423 39.0085L42.0818 39.5748C42.4784 39.8579 43.0192 39.9995 43.5598 39.9995C44.5693 39.9995 45.1463 39.5395 45.1463 38.9022C45.1463 38.3005 44.6776 37.9818 43.9564 37.8757L43.596 37.8403C43.2715 37.8048 43.0192 37.7342 43.0192 37.5218C43.0192 37.274 43.2715 37.1324 43.6681 37.1324C44.1008 37.1324 44.5334 37.3093 44.7497 37.4156L45.0742 36.8138ZM65.1909 36.4599C64.7581 36.4599 64.4698 36.6722 64.2894 36.9554V36.5306H63.5324V39.9287H64.2894V38.0173C64.2894 37.451 64.5419 37.1324 65.0104 37.1324C65.1547 37.1324 65.3351 37.1679 65.4792 37.2032L65.6955 36.4953C65.5513 36.4599 65.3351 36.4599 65.1909 36.4599ZM55.529 38.2297C55.529 39.2562 56.25 39.9995 57.3677 39.9995C57.8724 39.9995 58.2328 39.8934 58.5933 39.6102L58.2328 39.0085C57.9445 39.2208 57.6561 39.3269 57.3316 39.3269C56.7187 39.3269 56.2861 38.9022 56.2861 38.2297C56.2861 37.5926 56.7187 37.1677 57.3316 37.1324C57.6561 37.1324 57.9445 37.2385 58.2328 37.451L58.5933 36.8493C58.2328 36.566 57.8724 36.4599 57.3677 36.4599C56.25 36.4599 55.529 37.2032 55.529 38.2297ZM62.523 38.2297V36.5306H61.766V36.9554C61.5135 36.6369 61.1531 36.4599 60.6844 36.4599C59.711 36.4599 58.9539 37.2032 58.9539 38.2297C58.9539 39.2562 59.711 39.9995 60.6844 39.9995C61.189 39.9995 61.5497 39.8226 61.766 39.504V39.9287H62.523V38.2297ZM59.747 38.2297C59.747 37.6279 60.1436 37.1324 60.7924 37.1324C61.4053 37.1324 61.8381 37.5926 61.8381 38.2297C61.8381 38.8314 61.4053 39.3269 60.7924 39.3269C60.1436 39.2915 59.747 38.8314 59.747 38.2297ZM50.6982 36.4599C49.6887 36.4599 48.9676 37.1677 48.9676 38.2297C48.9676 39.2916 49.6885 39.9995 50.7342 39.9995C51.2388 39.9995 51.7437 39.8579 52.1403 39.5395L51.7796 39.0085C51.4912 39.2208 51.1308 39.3624 50.7703 39.3624C50.3016 39.3624 49.8329 39.1501 49.7247 38.5481H52.2844V38.2651C52.3206 37.1677 51.6717 36.4599 50.6982 36.4599ZM50.698 37.0969C51.1666 37.0969 51.4912 37.3802 51.5632 37.9112H49.7606C49.8327 37.451 50.1572 37.0969 50.698 37.0969ZM69.4807 38.2297V35.1855H68.7237V36.9554C68.4713 36.6369 68.1108 36.4599 67.6421 36.4599C66.6687 36.4599 65.9116 37.2032 65.9116 38.2297C65.9116 39.2562 66.6687 39.9995 67.6421 39.9995C68.1469 39.9995 68.5074 39.8226 68.7237 39.504V39.9287H69.4807V38.2297ZM66.7049 38.2297C66.7049 37.6279 67.1013 37.1324 67.7503 37.1324C68.3632 37.1324 68.7958 37.5926 68.7958 38.2297C68.7958 38.8314 68.3632 39.3269 67.7503 39.3269C67.1013 39.2915 66.7049 38.8314 66.7049 38.2297ZM41.3967 38.2297V36.5306H40.6396V36.9554C40.3872 36.6369 40.0267 36.4599 39.558 36.4599C38.5847 36.4599 37.8276 37.2032 37.8276 38.2297C37.8276 39.2562 38.5847 39.9995 39.558 39.9995C40.0628 39.9995 40.4233 39.8226 40.6396 39.504V39.9287H41.3967V38.2297ZM38.5847 38.2297C38.5847 37.6279 38.9813 37.1324 39.6301 37.1324C40.243 37.1324 40.6757 37.5926 40.6757 38.2297C40.6757 38.8314 40.243 39.3269 39.6301 39.3269C38.9813 39.2915 38.5847 38.8314 38.5847 38.2297Z" fill="black"/>
<path d="M44.8218 10.7256H56.1779V30.7603H44.8218V10.7256Z" fill="#FF5F00"/>
<path d="M45.5429 20.743C45.5429 16.6724 47.4897 13.0618 50.4818 10.7255C48.2829 9.02648 45.507 8 42.4787 8C35.3042 8 29.5 13.6988 29.5 20.743C29.5 27.7871 35.3042 33.4859 42.4785 33.4859C45.5068 33.4859 48.2827 32.4594 50.4818 30.7602C47.4897 28.4595 45.5429 24.8136 45.5429 20.743Z" fill="#EB001B"/>
<path d="M71.4998 20.743C71.4998 27.7869 65.6956 33.4859 58.5213 33.4859C55.493 33.4859 52.7171 32.4594 50.5179 30.7602C53.5462 28.4241 55.457 24.8136 55.457 20.743C55.457 16.6724 53.5101 13.0618 50.5179 10.7255C52.7169 9.02648 55.493 8 58.5213 8C65.6956 8 71.4998 13.7343 71.4998 20.743Z" fill="#F79E1B"/>
<defs>
<linearGradient id="paint0_linear_61_218" x1="50.5" y1="0" x2="50.5" y2="48" gradientUnits="userSpaceOnUse">
<stop stop-color="white"/>
<stop offset="1" stop-color="white"/>
</linearGradient>
</defs>
</svg>
