<svg width="101" height="48" viewBox="0 0 101 48" fill="none" xmlns="http://www.w3.org/2000/svg">
<rect width="101" height="48" rx="8" fill="url(#paint0_linear_61_188)"/>
<path d="M59.9887 11.2621C58.5134 9.6788 55.8467 9 52.4351 9H42.5338C42.1962 8.99995 41.8697 9.11332 41.613 9.31972C41.3563 9.52611 41.1863 9.81199 41.1334 10.1259L37.0107 34.7465C36.9288 35.232 37.328 35.6717 37.8506 35.6717H43.9633L45.4985 26.5029L45.4508 26.79C45.5602 26.1419 46.1489 25.6639 46.8459 25.6639H49.7507C55.4571 25.6639 59.9252 23.4815 61.2304 17.1681C61.2692 16.9813 61.3028 16.7996 61.3318 16.622C61.167 16.5399 61.167 16.5399 61.3318 16.622C61.7204 14.2886 61.3291 12.7002 59.9887 11.2621Z" fill="#27346A"/>
<path d="M47.8374 15.7814C48.0045 15.7064 48.1873 15.6676 48.3724 15.6678H56.1349C57.0541 15.6678 57.9114 15.7241 58.6949 15.8429C58.9141 15.8758 59.1322 15.9151 59.3489 15.9607C59.6559 16.0245 59.9595 16.1026 60.2583 16.1947C60.6435 16.3158 61.0022 16.4569 61.3319 16.622C61.7204 14.2877 61.3291 12.7002 59.9887 11.2621C58.5126 9.6788 55.8467 9 52.4351 9H42.533C41.8358 9 41.2427 9.47792 41.1334 10.1259L37.0107 34.7456C36.9288 35.2319 37.328 35.671 37.8497 35.671H43.9633L47.1483 16.6528C47.1797 16.4658 47.2587 16.2889 47.3788 16.1371C47.4988 15.9853 47.6562 15.8633 47.8374 15.7814Z" fill="#27346A"/>
<path d="M61.2304 17.1681C59.9252 23.4806 55.4571 25.6639 49.7506 25.6639H46.845C46.148 25.6639 45.5592 26.142 45.4509 26.7901L43.541 38.1903C43.4697 38.6152 43.8186 39.0002 44.2752 39.0002H49.428C49.7232 39.0001 50.0087 38.9009 50.2331 38.7204C50.4575 38.5398 50.6061 38.2898 50.6522 38.0153L50.7024 37.768L51.6736 31.9723L51.7362 31.652C51.7823 31.3775 51.9309 31.1275 52.1553 30.947C52.3797 30.7664 52.6651 30.6672 52.9603 30.6671H53.7315C58.7231 30.6671 62.6316 28.7576 63.7738 23.235C64.2505 20.9272 64.0039 19.0003 62.7427 17.6469C62.3602 17.237 61.8851 16.8984 61.3317 16.6221C61.3017 16.8005 61.2692 16.9814 61.2304 17.1681Z" fill="#2790C3"/>
<path d="M59.9658 16.1085C59.7623 16.0526 59.5568 16.003 59.3498 15.96C59.133 15.9151 58.9149 15.8761 58.6958 15.843C57.9115 15.7234 57.0548 15.667 56.1347 15.667H48.3732C48.188 15.6667 48.0051 15.7059 47.8383 15.7815C47.6568 15.8631 47.4992 15.985 47.3791 16.1369C47.259 16.2887 47.18 16.4658 47.149 16.6528L45.4993 26.5022L45.4517 26.7893C45.5602 26.1412 46.1488 25.6632 46.846 25.6632H49.7516C55.458 25.6632 59.9261 23.4807 61.2313 17.1674C61.2701 16.9806 61.3027 16.7997 61.3327 16.6213C61.0022 16.4572 60.6444 16.315 60.2591 16.1948C60.1619 16.1644 60.0642 16.1357 59.9659 16.1085" fill="#1F264F"/>
<defs>
<linearGradient id="paint0_linear_61_188" x1="50.5" y1="0" x2="50.5" y2="48" gradientUnits="userSpaceOnUse">
<stop stop-color="white"/>
<stop offset="1" stop-color="white"/>
</linearGradient>
</defs>
</svg>
