<svg width="101" height="48" viewBox="0 0 101 48" fill="none" xmlns="http://www.w3.org/2000/svg">
<rect width="101" height="48" rx="8" fill="url(#paint0_linear_61_183)"/>
<path d="M51.5305 20.3938C51.4963 23.1799 53.9359 24.7345 55.7737 25.6589C57.6618 26.6073 58.296 27.2155 58.2885 28.0637C58.2745 29.3617 56.7824 29.9346 55.3863 29.9568C52.9504 29.9958 51.5341 29.278 50.4081 28.7351L49.5306 32.9735C50.6603 33.5108 52.7521 33.9794 54.9212 34C60.013 34 63.3442 31.4055 63.3623 27.3829C63.3822 22.2777 56.5213 21.9951 56.5682 19.7132C56.5844 19.0213 57.224 18.2829 58.6255 18.0952C59.3193 18.0003 61.2344 17.9278 63.4056 18.9598L64.2578 14.8591C63.0902 14.4202 61.5895 14 59.721 14C54.9285 14 51.5577 16.6298 51.5305 20.3938ZM72.4464 14.3532C71.5166 14.3532 70.7331 14.913 70.3834 15.7721L63.1101 33.6988H68.1981L69.2106 30.8104H75.4281L76.0155 33.6988H80.5L76.5866 14.3532H72.4464ZM73.1582 19.5792L74.6266 26.8437H70.6052L73.1582 19.5792ZM45.3616 14.3535L41.3509 33.6986H46.1995L50.2082 14.353L45.3616 14.3535ZM38.189 14.3535L33.1424 27.5206L31.101 16.3247C30.8615 15.0749 29.9155 14.3532 28.8651 14.3532H20.6155L20.5 14.915C22.1936 15.2943 24.1178 15.9062 25.2836 16.5608C25.997 16.9608 26.2005 17.3104 26.4348 18.2607L30.3013 33.6988H35.425L43.2803 14.3532L38.189 14.3535Z" fill="url(#paint1_linear_61_183)"/>
<defs>
<linearGradient id="paint0_linear_61_183" x1="50.5" y1="0" x2="50.5" y2="48" gradientUnits="userSpaceOnUse">
<stop stop-color="white"/>
<stop offset="1" stop-color="white"/>
</linearGradient>
<linearGradient id="paint1_linear_61_183" x1="2778.94" y1="74.12" x2="2838.69" y2="-1979.8" gradientUnits="userSpaceOnUse">
<stop stop-color="#222357"/>
<stop offset="1" stop-color="#254AA5"/>
</linearGradient>
</defs>
</svg>
